<svg xmlns="http://www.w3.org/2000/svg" viewBox="0 0 512 512">
  <defs>
    <linearGradient id="bg" x1="40" y1="34" x2="470" y2="478">
      <stop stop-color="#101B3F"/><stop offset=".54" stop-color="#080F14"/><stop offset="1" stop-color="#30104E"/>
    </linearGradient>
    <linearGradient id="neon" x1="120" y1="80" x2="392" y2="390">
      <stop stop-color="#06B6D4"/><stop offset=".52" stop-color="#7C3AED"/><stop offset="1" stop-color="#F472B6"/>
    </linearGradient>
  </defs>
  <rect width="512" height="512" rx="112" fill="url(#bg)"/>
  <path d="M253 142c-20-36-70-30-82 7-36-2-58 30-52 59-33 12-45 47-31 75-22 26-16 67 15 84 8 44 59 61 93 31 22 18 45 21 57 12V142Z" fill="#0A1325" stroke="url(#neon)" stroke-width="19" stroke-linecap="round" stroke-linejoin="round"/>
  <path d="M259 142c20-36 70-30 82 7 36-2 58 30 52 59 33 12 45 47 31 75 22 26 16 67-15 84-8 44-59 61-93 31-22 18-45 21-57 12V142Z" fill="#140B29" stroke="url(#neon)" stroke-width="19" stroke-linecap="round" stroke-linejoin="round"/>
  <path d="M256 365c-55-45-123-64-210-53l30 82c79-11 138 5 180 46v-75Z" fill="#2563EB" stroke="#93C5FD" stroke-width="11" stroke-linejoin="round"/>
  <path d="M256 365c55-45 123-64 210-53l-30 82c-79-11-138 5-180 46v-75Z" fill="#7C3AED" stroke="#F0ABFC" stroke-width="11" stroke-linejoin="round"/>
</svg>
